<?xml version="1.0" encoding="UTF-8"?>
<svg id="Calque_1" xmlns="http://www.w3.org/2000/svg" version="1.1" viewBox="0 0 20 20">
  <!-- Generator: Adobe Illustrator 29.1.0, SVG Export Plug-In . SVG Version: 2.1.0 Build 142)  -->
  <defs>
    <style>
      .st0 {
        fill: #fff;
      }
    </style>
  </defs>
  <g>
    <path class="st0" d="M10,0C4.5,0,0,4.5,0,10s4.5,10,10,10,10-4.5,10-10S15.5,0,10,0ZM10,18.2c-4.5,0-8.2-3.7-8.2-8.2S5.5,1.8,10,1.8s8.2,3.7,8.2,8.2-3.7,8.2-8.2,8.2Z"/>
    <path class="st0" d="M14.5,9.1h-3.6v-3.6c0-.5-.4-.9-.9-.9s-.9.4-.9.9v3.6h-3.6c-.5,0-.9.4-.9.9s.4.9.9.9h3.6v3.6c0,.5.4.9.9.9s.9-.4.9-.9v-3.6h3.6c.5,0,.9-.4.9-.9s-.4-.9-.9-.9Z"/>
  </g>
  <rect class="st0" x="-2" y="-1" width="23" height="22"/>
</svg>