<?xml version="1.0" encoding="UTF-8"?>
<svg id="Calque_1" xmlns="http://www.w3.org/2000/svg" version="1.1" viewBox="0 0 25 25">
  <!-- Generator: Adobe Illustrator 29.1.0, SVG Export Plug-In . SVG Version: 2.1.0 Build 142)  -->
  <defs>
    <style>
      .st0 {
        fill: #fff;
      }

      .st1 {
        fill: #f60;
        stroke-linejoin: round;
      }

      .st1, .st2, .st3 {
        stroke: #fff;
        stroke-width: 1.3px;
      }

      .st2 {
        fill: none;
      }

      .st3 {
        fill: #60c;
      }
    </style>
  </defs>
  <path class="st3" d="M.8,12.5C.8,6.1,6.1.8,12.5.8s11.7,5.2,11.7,11.7-5.2,11.7-11.7,11.7S.8,18.9.8,12.5h0Z"/>
  <path class="st3" d="M4,12.5c0-4.7,3.8-8.5,8.5-8.5,4.7,0,8.5,3.8,8.5,8.5h0c0,4.7-3.8,8.5-8.5,8.5-4.7,0-8.5-3.8-8.5-8.5Z"/>
  <path class="st0" d="M11.8,4c0,.4.3.7.6.7s.7-.3.7-.6c0,0,0,0,0,0h-1.3ZM11.8.8v3.1h1.3V.8h-1.3ZM13.2,21c0-.4-.3-.7-.6-.7s-.7.3-.7.6c0,0,0,0,0,0h1.3ZM13.2,24.2v-3.1h-1.3v3.1h1.3ZM21,11.8c-.4,0-.7.3-.6.7,0,.4.3.6.6.6v-1.3ZM24.2,11.8h-3.1v1.3h3.1v-1.3ZM4,13.2c.4,0,.7-.3.7-.6s-.3-.7-.6-.7c0,0,0,0,0,0v1.3ZM.8,13.2h3.1v-1.3H.8v1.3Z"/>
  <path class="st2" d="M20.7,4.3l-2.2,2.2"/>
  <path class="st0" d="M7,19c.3-.3.2-.7,0-1-.3-.2-.7-.2-.9,0,0,0,1,1,1,1ZM4.7,21.2l2.2-2.2-1-1-2.2,2.2s1,1,1,1ZM19,18c-.3-.3-.7-.2-1,0-.2.3-.2.7,0,.9l1-1ZM21.2,20.3l-2.2-2.2-1,1,2.2,2.2,1-1ZM6,7c.3.3.7.2,1,0,.2-.3.2-.7,0-.9l-1,1ZM3.8,4.7l2.2,2.2,1-1-2.2-2.2s-1,1-1,1ZM15.1,4.4c-.1.3,0,.7.4.9s.7,0,.9-.4c0,0,0,0,0,0l-1.2-.5ZM16.3,1.5l-1.2,2.9,1.2.5,1.2-2.9s-1.2-.5-1.2-.5ZM9.9,20.6c.2-.3,0-.7-.3-.9-.3-.2-.7,0-.9.3,0,0,0,0,0,0l1.2.5ZM8.7,23.5l1.2-2.9-1.2-.5-1.2,2.9,1.2.5ZM20.6,15.1c-.3-.1-.7,0-.9.4-.1.3,0,.7.4.9,0,0,0,0,0,0l.5-1.2ZM23.5,16.3l-2.9-1.2-.5,1.2,2.9,1.2.5-1.2ZM4.4,9.9c.3.1.7,0,.9-.4.1-.3,0-.7-.4-.8l-.5,1.2ZM1.5,8.7l2.9,1.2.5-1.2-2.9-1.2s-.5,1.2-.5,1.2Z"/>
  <path class="st2" d="M23.3,8l-2.9,1.2"/>
  <path class="st0" d="M4.9,16.4c.3-.1.5-.5.4-.9s-.5-.5-.9-.4c0,0,0,0,0,0l.5,1.2ZM2,17.6l2.9-1.2-.5-1.2-2.9,1.2s.5,1.2.5,1.2ZM16.4,20.1c-.1-.3-.5-.5-.9-.4-.3.1-.5.5-.4.9,0,0,0,0,0,0l1.2-.5h0ZM17.6,23l-1.2-2.9-1.2.5,1.2,2.9,1.2-.5h0ZM8.6,4.9c.2.3.6.5.9.3.3-.1.5-.5.3-.8l-1.2.5h0ZM7.4,2l1.2,2.9,1.2-.5-1.2-2.9-1.2.5h0Z"/>
  <path class="st1" d="M13.1,8.4c-.1-.3-.5-.5-.9-.4-.2,0-.3.2-.4.4l-.9,2.3h-2.2c-.4,0-.7.3-.7.7,0,.2,0,.4.2.5l1.7,1.5-.6,2.3c0,.4.1.7.5.8.2,0,.4,0,.6-.1l2.1-1.5,2.1,1.5c.3.2.7.2.9-.1.1-.2.2-.4.1-.6l-.6-2.3,1.7-1.5c.3-.2.3-.7,0-1-.1-.1-.3-.2-.5-.2h-2.2l-.9-2.3Z"/>
</svg>