<?xml version="1.0" encoding="UTF-8"?>
<svg id="Calque_1" xmlns="http://www.w3.org/2000/svg" version="1.1" viewBox="0 0 24 24">
  <!-- Generator: Adobe Illustrator 29.1.0, SVG Export Plug-In . SVG Version: 2.1.0 Build 142)  -->
  <defs>
    <style>
      .st0 {
        fill: #fff;
        fill-rule: evenodd;
      }
    </style>
  </defs>
  <path class="st0" d="M12,1.2c-1.8,0-3.3.2-4.5.4h-.1c-1,.2-1.8.3-2.5,1.1-.4.5-.6,1.1-.6,1.7l-.5.2c-.5.2-.9.3-1.2.4-.3.2-.7.4-.9.7-.2.3-.3.7-.4,1.1,0,.4,0,.8,0,1.3h0c0,.5,0,.9,0,1.2,0,.3.1.6.3.9.2.3.4.5.7.7.2.2.6.3.9.5l2.6,1.5c.5,1.1,1.3,2,2.3,2.7.9.6,2,1,3.2,1.1,0,0,0,.2,0,.3v1.8h-1.4c-.8,0-1.6.6-1.7,1.4l-.2,1.1h-1.9c-.4,0-.8.3-.8.8s.3.8.8.8h12c.4,0,.8-.3.8-.8s-.3-.8-.8-.8h-1.9l-.2-1.1c-.2-.8-.9-1.4-1.7-1.4h-1.4v-1.8c0,0,0-.2,0-.3,1.3,0,2.3-.5,3.2-1.1,1-.7,1.8-1.6,2.3-2.7l2.6-1.5c.4-.2.7-.4.9-.5.3-.2.5-.4.7-.7.2-.3.2-.6.3-.9,0-.3,0-.7,0-1.1h0c0-.6,0-1.1,0-1.4,0-.4-.1-.8-.4-1.1s-.6-.5-.9-.7c-.3-.1-.7-.3-1.2-.4l-.5-.2c0-.6-.2-1.2-.6-1.7-.7-.8-1.5-.9-2.5-1.1h-.1c-1.2-.2-2.7-.4-4.5-.4ZM14.6,21.2l-.2-.8c0-.1-.1-.2-.2-.2h-4.4c-.1,0-.2,0-.2.2l-.2.8h5.2ZM4.3,6h0c0,1.5.2,3.2.7,4.8l-1.1-.6c-.4-.2-.6-.4-.8-.5-.2-.1-.2-.2-.2-.2s0-.1,0-.3c0-.2,0-.5,0-.9h0c0-.6,0-1,0-1.2,0-.2,0-.3.1-.4,0,0,.1-.1.3-.2.2-.1.6-.2,1.1-.4ZM19.7,6c0,1.5-.2,3.2-.7,4.8l1.1-.6c.4-.2.6-.4.8-.5.2-.1.2-.2.2-.2,0,0,0-.1,0-.3,0-.2,0-.5,0-.9h0c0-.6,0-1,0-1.2,0-.2,0-.3-.1-.4,0,0-.1-.1-.3-.2-.2-.1-.6-.2-1.1-.4h0ZM7.7,3.1c1.1-.2,2.5-.3,4.3-.3s3.2.2,4.3.3c1.2.2,1.5.3,1.7.6.3.3.3.6.2,2,0,2.3-.4,4.7-1.3,6.5-.5.9-1.1,1.7-1.8,2.2-.8.5-1.8.8-3.1.8s-2.3-.3-3.1-.8c-.8-.5-1.4-1.3-1.8-2.2-.9-1.9-1.2-4.3-1.3-6.5,0-1.4,0-1.7.2-2,.3-.3.5-.4,1.7-.6Z"/>
</svg>