<?xml version="1.0" encoding="UTF-8"?>
<svg id="Calque_1" xmlns="http://www.w3.org/2000/svg" version="1.1" viewBox="0 0 24 24">
  <!-- Generator: Adobe Illustrator 29.1.0, SVG Export Plug-In . SVG Version: 2.1.0 Build 142)  -->
  <defs>
    <style>
      .st0 {
        fill: #fff;
        fill-rule: evenodd;
      }
    </style>
  </defs>
  <path class="st0" d="M11.9,1.2c-2.3,0-4.1,0-5.5.2-1.4.2-2.6.6-3.5,1.5s-1.3,2-1.5,3.5c-.2,1.4-.2,3.2-.2,5.5h0c0,2.4,0,4.2.2,5.6.2,1.4.6,2.6,1.5,3.5.9.9,2,1.3,3.5,1.5,1.4.2,3.2.2,5.5.2h.1c2.3,0,4.1,0,5.5-.2,1.4-.2,2.6-.6,3.5-1.5.9-.9,1.3-2,1.5-3.5.2-1.4.2-3.2.2-5.5h0c0-2.4,0-4.2-.2-5.6-.2-1.4-.6-2.6-1.5-3.5-.9-.9-2-1.3-3.5-1.5-1.4-.2-3.2-.2-5.5-.2h-.1ZM11.2,2.8c-2,0-3.5,0-4.6.2-1.3.2-2,.5-2.6,1.1-.6.6-.9,1.3-1.1,2.6-.2,1.2-.2,2.6-.2,4.6h4.2c-.4-.4-.6-1-.8-1.5-.5-2.2,1.4-4.1,3.6-3.6.6.1,1.1.4,1.5.8V2.8ZM2.8,12.8c0,2,0,3.5.2,4.6.2,1.3.5,2,1.1,2.6.6.6,1.3.9,2.6,1.1,1.2.2,2.6.2,4.6.2v-7.1c-.8,1.6-2.4,2.6-4.2,2.6s-.8-.3-.8-.8.3-.8.8-.8c1.5,0,2.8-1.1,3.2-2.5H2.8ZM12.8,21.2c2,0,3.5,0,4.6-.2,1.3-.2,2-.5,2.6-1.1s.9-1.3,1.1-2.6c.2-1.2.2-2.6.2-4.6h-7.4c.3,1.4,1.6,2.5,3.2,2.5s.8.3.8.8-.3.8-.8.8c-1.9,0-3.5-1.1-4.2-2.6v7.1ZM21.2,11.2h-4.2c.4-.4.6-1,.8-1.5.5-2.2-1.4-4.1-3.6-3.6-.6.1-1.1.4-1.5.8V2.8c2,0,3.5,0,4.6.2,1.3.2,2,.5,2.6,1.1.6.6.9,1.3,1.1,2.6.2,1.2.2,2.6.2,4.6ZM12.8,11.2v-1.2c0-1.1.8-2.1,1.9-2.4,1.1-.3,2,.7,1.7,1.7-.3,1.1-1.3,1.9-2.4,1.9h-1.2ZM11.2,10c0-1.1-.8-2.1-1.9-2.4-1.1-.3-2,.7-1.7,1.7.3,1.1,1.3,1.9,2.4,1.9h1.2v-1.2Z"/>
</svg>