<?xml version="1.0" encoding="UTF-8"?>
<svg id="Calque_1" xmlns="http://www.w3.org/2000/svg" version="1.1" viewBox="0 0 24 24">
  <!-- Generator: Adobe Illustrator 29.1.0, SVG Export Plug-In . SVG Version: 2.1.0 Build 142)  -->
  <defs>
    <style>
      .st0 {
        fill: #fff;
        fill-rule: evenodd;
      }
    </style>
  </defs>
  <path class="st0" d="M16.4,2h0c1.1.3,2,.5,2.7.8.7.3,1.3.5,1.7,1,.7.6,1.2,1.5,1.4,2.4.1.6.1,1.3,0,2-.1.7-.4,1.6-.7,2.7l-.5,2c-.3,1.1-.5,2-.8,2.7-.3.7-.5,1.3-1,1.7-.6.7-1.4,1.1-2.3,1.4-.3.6-.6,1.1-1.1,1.6-.5.4-1,.7-1.7,1-.7.2-1.6.5-2.7.8h0c-1.1.3-2,.5-2.7.7-.7.1-1.4.2-2,0-.9-.2-1.7-.7-2.4-1.4-.4-.5-.7-1-1-1.7-.2-.7-.5-1.6-.8-2.7l-.5-2c-.3-1.1-.5-2-.7-2.7-.1-.7-.2-1.4,0-2,.2-.9.7-1.7,1.4-2.4.5-.4,1-.7,1.7-1,.7-.2,1.6-.5,2.7-.8h0c.3,0,.5-.1.8-.2.4-1.4.7-2.4,1.4-3.1.6-.7,1.5-1.2,2.4-1.4.6-.1,1.3-.1,2,0,.7.1,1.6.4,2.7.7ZM7.5,7.5c-1.1.3-1.9.5-2.5.7-.6.2-1,.4-1.2.7-.5.4-.8,1-.9,1.6,0,.3,0,.8,0,1.4.1.6.3,1.5.6,2.6l.5,1.9c.3,1.1.5,1.9.7,2.6.2.6.4,1,.7,1.2.4.5,1,.8,1.6.9.3,0,.8,0,1.4,0,.6-.1,1.5-.3,2.6-.6,1.1-.3,1.9-.5,2.6-.7.6-.2,1-.4,1.2-.7.1-.1.3-.3.4-.4-.2,0-.4,0-.6,0-.7-.1-1.5-.3-2.5-.6h0c-1.1-.3-2-.5-2.7-.8-.7-.3-1.3-.5-1.7-1-.7-.6-1.2-1.5-1.4-2.4-.1-.6-.1-1.3,0-2,.1-.7.4-1.6.7-2.7l.4-1.6ZM13.4,2.8c-.6-.1-1-.1-1.4,0-.6.1-1.2.5-1.6.9-.4.5-.7,1.2-1.2,2.9,0,.3-.2.6-.2.9l-.5,1.9c-.3,1.1-.5,1.9-.6,2.6-.1.6-.1,1,0,1.4.1.6.5,1.2.9,1.6.3.2.6.4,1.2.7.6.2,1.4.4,2.6.7,1,.3,1.8.5,2.4.6.6.1,1,.2,1.4.1,0,0,.1,0,.2,0,.6-.1,1.2-.5,1.6-.9.2-.3.4-.6.7-1.2.2-.6.4-1.4.7-2.6l.5-1.9c.3-1.1.5-1.9.6-2.6.1-.6.1-1,0-1.4-.1-.6-.5-1.2-.9-1.6-.3-.2-.6-.4-1.2-.7-.6-.2-1.4-.4-2.6-.7-1.1-.3-1.9-.5-2.6-.6ZM11.1,9.8c.1-.4.5-.6.9-.5l4.8,1.3c.4.1.6.5.5.9s-.5.6-.9.5l-4.8-1.3c-.4-.1-.6-.5-.5-.9ZM10.3,12.7c.1-.4.5-.6.9-.5l2.9.8c.4.1.6.5.5.9-.1.4-.5.6-.9.5l-2.9-.8c-.4-.1-.6-.5-.5-.9Z"/>
</svg>