<?xml version="1.0" encoding="UTF-8"?>
<svg id="Calque_1" xmlns="http://www.w3.org/2000/svg" version="1.1" viewBox="0 0 24 24">
  <!-- Generator: Adobe Illustrator 29.1.0, SVG Export Plug-In . SVG Version: 2.1.0 Build 142)  -->
  <defs>
    <style>
      .st0 {
        fill: #fff;
        fill-rule: evenodd;
      }
    </style>
  </defs>
  <path class="st0" d="M12,1.2c-2.6,0-4.8,2.1-4.8,4.8s2.1,4.8,4.8,4.8,4.8-2.1,4.8-4.8S14.6,1.2,12,1.2ZM8.8,6c0-1.8,1.5-3.2,3.2-3.2s3.2,1.5,3.2,3.2-1.5,3.2-3.2,3.2-3.2-1.5-3.2-3.2Z"/>
  <path class="st0" d="M12,12.2c-2,0-3.9.5-5.3,1.3-1.4.8-2.4,2-2.4,3.5s1.1,2.7,2.4,3.5c1.4.8,3.3,1.3,5.3,1.3s3.9-.5,5.3-1.3c1.4-.8,2.4-2,2.4-3.5s-1-2.7-2.4-3.5c-1.4-.8-3.3-1.3-5.3-1.3ZM5.8,17c0-.7.5-1.5,1.7-2.2,1.1-.6,2.8-1.1,4.6-1.1s3.4.4,4.6,1.1c1.2.7,1.7,1.5,1.7,2.2s-.5,1.5-1.7,2.2c-1.1.6-2.8,1.1-4.6,1.1s-3.4-.4-4.6-1.1c-1.2-.7-1.7-1.5-1.7-2.2Z"/>
</svg>