<?xml version="1.0" encoding="UTF-8"?>
<svg id="Calque_1" xmlns="http://www.w3.org/2000/svg" version="1.1" viewBox="0 0 24 24">
  <!-- Generator: Adobe Illustrator 29.1.0, SVG Export Plug-In . SVG Version: 2.1.0 Build 142)  -->
  <defs>
    <style>
      .st0, .st1 {
        fill: #fff;
      }

      .st1 {
        fill-rule: evenodd;
      }
    </style>
  </defs>
  <path class="st1" d="M5.7,3.5c.5-.2,1-.2,1.4-.2h.6c1,0,2,.3,2.9.9l.5.4c.3.2.6.3.9.3s.6-.1.9-.3l.5-.4c.8-.6,1.9-.9,2.9-.9h.6c.4,0,.9,0,1.4.2,1.4.5,2.6,1.7,3.3,3.6.7,1.9,1.1,4.5,1.1,8.1,0,.7-.1,1.6-.4,2.3-.3.8-.8,1.5-1.7,1.9-.5.2-1.1.4-1.7.4s-1.4-.2-1.9-.6c-.5-.3-.9-.7-1.2-1.1,0,0,0,0-.1-.1-.4-.4-.7-.7-1.1-.9-.5-.2-1-.4-1.5-.4h-2c-.5,0-1.1.1-1.5.4-.4.2-.7.5-1.1.9,0,0,0,0-.1.1-.4.3-.8.7-1.2,1.1-.5.3-1.2.6-1.9.6s-1.2-.2-1.7-.4c-.9-.4-1.4-1.1-1.7-1.9-.3-.8-.4-1.6-.4-2.3,0-3.6.3-6.2,1.1-8.1.8-1.9,1.9-3.1,3.3-3.6ZM7.1,4.8c-.4,0-.7,0-.9.1-.9.3-1.8,1.1-2.4,2.7-.6,1.6-1,4-1,7.5,0,.7,0,1.3.3,1.8.2.5.5.9.9,1.1.3.1.7.2,1.1.2s.8-.1,1.1-.3c.3-.2.7-.5,1-.9,0,0,0,0,.1-.1.4-.4.9-.8,1.5-1.1.7-.4,1.5-.5,2.2-.5h2c.8,0,1.5.2,2.2.5.6.3,1.1.8,1.5,1.1,0,0,0,0,.1.1.4.4.7.7,1,.9.3.2.6.3,1.1.3s.8,0,1.1-.2c.4-.2.7-.6.9-1.1.2-.5.3-1.2.3-1.8,0-3.5-.3-5.9-1-7.5-.6-1.6-1.5-2.4-2.4-2.7-.3,0-.6-.1-.9-.1h-.6c-.7,0-1.4.2-2,.6l-.5.4c-.5.4-1.1.6-1.8.6s-1.2-.2-1.8-.6l-.5-.4c-.6-.4-1.3-.6-2-.6h-.6ZM7.5,8.2c.4,0,.8.3.8.8v.8h.8c.4,0,.8.3.8.8s-.3.8-.8.8h-.8v.8c0,.4-.3.8-.8.8s-.8-.3-.8-.8v-.8h-.8c-.4,0-.8-.3-.8-.8s.3-.8.8-.8h.8v-.8c0-.4.3-.8.8-.8Z"/>
  <path class="st0" d="M19,10.2c0,.4-.3.8-.8.8s-.8-.3-.8-.8.3-.8.8-.8.8.3.8.8Z"/>
  <path class="st0" d="M16,10.2c0,.4-.3.8-.8.8s-.8-.3-.8-.8.3-.8.8-.8.8.3.8.8Z"/>
  <path class="st0" d="M16.8,8c.4,0,.8.3.8.8s-.3.8-.8.8-.8-.3-.8-.8.3-.8.8-.8Z"/>
  <path class="st0" d="M16.8,11c.4,0,.8.3.8.8s-.3.8-.8.8-.8-.3-.8-.8.3-.8.8-.8Z"/>
</svg>