<?xml version="1.0" encoding="UTF-8"?>
<svg id="Calque_1" xmlns="http://www.w3.org/2000/svg" version="1.1" viewBox="0 0 1035 138">
  <!-- Generator: Adobe Illustrator 29.1.0, SVG Export Plug-In . SVG Version: 2.1.0 Build 142)  -->
  <defs>
    <style>
      .st0 {
        fill: #f60;
      }

      .st1 {
        fill: #fff;
      }

      .st2 {
        fill: none;
      }
    </style>
  </defs>
  <rect class="st2" x=".5" y=".5" width="1035" height="138"/>
  <g>
    <g>
      <g>
        <path class="st0" d="M792.8,60.9c2.4,0,4.4.9,6.1,2.6,1.7,1.7,2.6,3.7,2.6,6.1s-.9,4.5-2.6,6.2c-1.7,1.7-3.7,2.5-6.1,2.5h-17.4v17.4c0,2.4-.9,4.5-2.6,6.2-1.7,1.7-3.7,2.5-6.1,2.5s-4.5-.8-6.2-2.5c-1.7-1.7-2.5-3.8-2.5-6.2v-52.2c0-2.4.8-4.4,2.5-6.1,1.7-1.7,3.8-2.6,6.2-2.6h34.8c2.4,0,4.4.9,6.1,2.6,1.7,1.7,2.6,3.7,2.6,6.1s-.9,4.5-2.6,6.2c-1.7,1.7-3.7,2.5-6.1,2.5h-26.1v8.7h17.4Z"/>
        <path class="st1" d="M840.6,87c3.6,0,6.7-1.3,9.2-3.8,2.6-2.6,3.8-5.6,3.8-9.2s-1.3-6.7-3.8-9.2c-2.5-2.5-5.6-3.8-9.2-3.8s-6.7,1.3-9.2,3.8c-2.6,2.6-3.8,5.6-3.8,9.2s1.3,6.7,3.8,9.2c2.5,2.6,5.6,3.8,9.2,3.8ZM855.3,100.8c-4.4,2.4-9.3,3.7-14.7,3.7-8.4,0-15.6-3-21.5-8.9-5.9-5.9-8.9-13.1-8.9-21.5s3-15.6,8.9-21.5c5.9-5.9,13.1-8.9,21.5-8.9s10.3,1.2,14.7,3.7c.3-.4.6-.8,1-1.1,1.7-1.7,3.7-2.5,6.1-2.5s4.4.9,6.1,2.6c1.7,1.7,2.6,3.7,2.6,6.1v43.5c0,2.4-.9,4.5-2.6,6.2-1.7,1.7-3.7,2.5-6.1,2.5s-4.4-.9-6.1-2.6c-.4-.3-.7-.7-1-1.1ZM897.2,71l20-25c1.7-1.7,3.7-2.5,6.1-2.5s4.4.9,6.1,2.6c1.7,1.7,2.6,3.7,2.6,6.1s-.8,4.4-2.5,6.1l-12.7,15.6,12.7,15.6c1.7,1.7,2.5,3.8,2.5,6.2s-.9,4.5-2.6,6.2c-1.7,1.7-3.7,2.5-6.1,2.5s-4.4-.9-6.1-2.6l-11.3-14.2-9.9,12.5c-.3.6-.8,1.1-1.3,1.7-1.7,1.7-3.8,2.6-6.2,2.6s-4.5-.8-6.2-2.5c-1.7-1.7-2.5-3.8-2.5-6.2v-52.2c0-2.4.8-4.4,2.5-6.1,1.7-1.7,3.8-2.6,6.2-2.6s4.4.9,6.1,2.6c1.7,1.7,2.6,3.7,2.6,6.1v27.5ZM961.4,82.7c.1.2.3.3.5.5,2.5,2.6,5.6,3.8,9.2,3.8h13c2.4,0,4.4.9,6.1,2.6,1.7,1.7,2.6,3.7,2.6,6.1s-.9,4.5-2.6,6.2c-1.7,1.7-3.7,2.5-6.1,2.5h-13c-8.4,0-15.6-3-21.5-8.9-5.9-5.9-8.9-13.1-8.9-21.5s3-15.6,8.9-21.5c5.9-5.9,13.1-8.9,21.5-8.9s15.6,3,21.5,8.9c5.9,5.9,8.9,13.1,8.9,21.5s-.9,4.5-2.6,6.2c-1.7,1.7-3.7,2.5-6.1,2.5h-31.4ZM980.8,65.3c-.1-.2-.3-.4-.5-.5-2.5-2.5-5.6-3.8-9.2-3.8s-6.7,1.3-9.2,3.8c-.2.2-.3.4-.5.5h19.4Z"/>
      </g>
      <g>
        <path class="st0" d="M555.6,52.2h-8.7c-2.4,0-4.5-.8-6.2-2.5-1.7-1.7-2.5-3.8-2.5-6.2s.8-4.4,2.5-6.1c1.7-1.7,3.8-2.6,6.2-2.6h34.8c2.4,0,4.4.9,6.1,2.6,1.7,1.7,2.6,3.7,2.6,6.1s-.9,4.5-2.6,6.2c-1.7,1.7-3.7,2.5-6.1,2.5h-8.7v43.5c0,2.4-.9,4.5-2.6,6.2-1.7,1.7-3.7,2.5-6.1,2.5s-4.5-.8-6.2-2.5c-1.7-1.7-2.5-3.8-2.5-6.2v-43.5Z"/>
        <path class="st1" d="M615.6,44.9c2.7-.9,5.6-1.4,8.7-1.4,7.2,0,13.4,2.5,18.4,7.7,5.1,5.1,7.7,11.2,7.7,18.4v26.1c0,2.4-.9,4.5-2.6,6.2-1.7,1.7-3.7,2.5-6.1,2.5s-4.5-.8-6.2-2.5c-1.7-1.7-2.5-3.8-2.5-6.2v-26.1c0-2.4-.9-4.4-2.6-6.1-1.7-1.7-3.7-2.6-6.1-2.6s-4.5.9-6.2,2.6c-1.7,1.7-2.5,3.7-2.5,6.1v26.1c0,2.4-.9,4.5-2.6,6.2-1.7,1.7-3.7,2.5-6.1,2.5s-4.5-.8-6.2-2.5c-1.7-1.7-2.5-3.8-2.5-6.2v-52.2c0-2.4.8-4.4,2.5-6.1,1.7-1.7,3.8-2.6,6.2-2.6s4.4.9,6.1,2.6c1.7,1.7,2.6,3.7,2.6,6.1v1.4ZM679.8,82.7c.1.2.3.3.5.5,2.5,2.6,5.6,3.8,9.2,3.8h13c2.4,0,4.5.9,6.1,2.6,1.7,1.7,2.6,3.7,2.6,6.1s-.9,4.5-2.6,6.2c-1.7,1.7-3.7,2.5-6.1,2.5h-13c-8.4,0-15.6-3-21.5-8.9-5.9-5.9-8.9-13.1-8.9-21.5s3-15.6,8.9-21.5c5.9-5.9,13.1-8.9,21.5-8.9s15.6,3,21.5,8.9c5.9,5.9,8.9,13.1,8.9,21.5s-.9,4.5-2.6,6.2c-1.7,1.7-3.7,2.5-6.1,2.5h-31.4ZM699.2,65.3c-.1-.2-.3-.4-.5-.5-2.5-2.5-5.6-3.8-9.2-3.8s-6.7,1.3-9.2,3.8c-.2.2-.3.4-.5.5h19.4Z"/>
      </g>
      <g>
        <path class="st0" d="M262.8,70.7l-8.7,26.1c-.6,1.9-1.4,3.6-2.5,5-1.7,1.7-3.8,2.6-6.2,2.6s-4.4-.9-6.1-2.6c-1.2-1.4-2-3.1-2.6-5l-16.3-48.9c-.4-1.3-.8-2.8-1.1-4.3,0-2.4.8-4.4,2.5-6.1,1.7-1.7,3.8-2.6,6.2-2.6s4.5.8,6.2,2.5c1.1,1.5,2,3.1,2.5,5.1h0l8.7,26.1,8.7-26.1h0s0,0,0-.1c.2-1.9,1.1-3.5,2.5-5,1.7-1.7,3.7-2.5,6.1-2.5s4.5.9,6.3,2.7c1.3,1.4,2,2.9,2.3,4.7,0,0,0,0,0,.1h0l8.7,26.1,8.7-26.1h0c.5-1.9,1.4-3.6,2.5-5.1,1.7-1.7,3.7-2.5,6.1-2.5s4.4.9,6.1,2.6c1.7,1.7,2.6,3.7,2.6,6.1-.3,1.6-.7,3-1.1,4.3l-16.3,48.9c-.5,1.9-1.4,3.6-2.5,5-1.7,1.7-3.8,2.6-6.2,2.6s-4.4-.9-6.1-2.6c-1.2-1.4-2-3.1-2.6-5l-8.7-26.1Z"/>
        <path class="st1" d="M332.4,44.9c2.7-.9,5.6-1.4,8.7-1.4,7.2,0,13.4,2.5,18.4,7.7,5.1,5.1,7.7,11.2,7.7,18.4v26.1c0,2.4-.9,4.5-2.6,6.2-1.7,1.7-3.7,2.5-6.1,2.5s-4.5-.8-6.2-2.5c-1.7-1.7-2.5-3.8-2.5-6.2v-26.1c0-2.4-.9-4.4-2.6-6.1-1.7-1.7-3.7-2.6-6.1-2.6s-4.5.9-6.2,2.6c-1.7,1.7-2.5,3.7-2.5,6.1v26.1c0,2.4-.9,4.5-2.6,6.2-1.7,1.7-3.7,2.5-6.1,2.5s-4.5-.8-6.2-2.5c-1.7-1.7-2.5-3.8-2.5-6.2v-52.2c0-2.4.8-4.4,2.5-6.1,1.7-1.7,3.8-2.6,6.2-2.6s4.4.9,6.1,2.6c1.7,1.7,2.6,3.7,2.6,6.1v1.4ZM406.3,87c3.6,0,6.7-1.3,9.2-3.8,2.6-2.6,3.8-5.6,3.8-9.2s-1.3-6.7-3.8-9.2c-2.6-2.5-5.6-3.8-9.2-3.8s-6.7,1.3-9.2,3.8c-2.5,2.6-3.8,5.6-3.8,9.2s1.3,6.7,3.8,9.2c2.6,2.6,5.6,3.8,9.2,3.8ZM420.9,100.8c-4.4,2.4-9.3,3.7-14.7,3.7-8.4,0-15.6-3-21.5-8.9-5.9-5.9-8.9-13.1-8.9-21.5s3-15.6,8.9-21.5c5.9-5.9,13.1-8.9,21.5-8.9s10.3,1.2,14.7,3.7c.3-.4.6-.8,1-1.1,1.7-1.7,3.7-2.5,6.1-2.5s4.4.9,6.1,2.6c1.7,1.7,2.6,3.7,2.6,6.1v43.5c0,2.4-.9,4.5-2.6,6.2-1.7,1.7-3.7,2.5-6.1,2.5s-4.4-.9-6.1-2.6c-.4-.3-.7-.7-1-1.1ZM445.4,43.5c0-2.4.8-4.4,2.5-6.1,1.7-1.7,3.8-2.6,6.2-2.6s4.4.9,6.1,2.6c1.7,1.7,2.6,3.7,2.6,6.1h4.3c2.4,0,4.4.9,6.1,2.6,1.7,1.7,2.6,3.7,2.6,6.1s-.9,4.5-2.6,6.2c-1.7,1.7-3.7,2.5-6.1,2.5h-4.3v17.4c0,2.4.8,4.5,2.5,6.2,1.7,1.7,3.8,2.5,6.2,2.5s4.5-.8,6.2-2.5l2.9-3.6c1.7-1.7,3.7-2.6,6.1-2.6s4.4.9,6.1,2.6c1.7,1.7,2.6,3.7,2.6,6.1s-.7,4.1-2,5.7c-1,1.4-2.1,2.8-3.4,4.1-5.1,5.1-11.3,7.6-18.5,7.6s-13.4-2.5-18.5-7.6c-5.1-5.1-7.6-11.3-7.6-18.5v-34.8Z"/>
      </g>
    </g>
    <g>
      <path class="st1" d="M89.3,57.6c-.9,0-1.6-.6-1.8-1.5-.4-3-1.5-6.7-4.3-7.4-2.6-.7-5.9,1.5-6.8,2.8-.6.8-1.7,1-2.5.4-.8-.6-1-1.7-.4-2.5,1.7-2.4,6.3-5.2,10.5-4.2,2.6.6,5.9,3,6.9,10.4.1,1-.5,1.9-1.5,2,0,0-.2,0-.2,0Z"/>
      <path class="st1" d="M129.9,57.6c0,0-.2,0-.2,0-1-.1-1.7-1-1.5-2,1-7.4,4.3-9.7,6.9-10.4,4.2-1,8.8,1.8,10.5,4.2.6.8.4,1.9-.4,2.5-.8.6-1.9.4-2.5-.4-.9-1.3-4.1-3.4-6.8-2.8-2.8.7-3.8,4.4-4.3,7.4-.1.9-.9,1.5-1.8,1.5Z"/>
      <path class="st1" d="M134.6,82.6c-.8,0-1.4.6-1.4,1.4s.6,1.4,1.4,1.4,1.4-.6,1.4-1.4-.6-1.4-1.4-1.4Z"/>
      <path class="st1" d="M131.8,76.6c-.8,0-1.4.6-1.4,1.4s.6,1.4,1.4,1.4,1.4-.6,1.4-1.4-.6-1.4-1.4-1.4Z"/>
      <path class="st1" d="M126.2,81.5c0-.8-.6-1.4-1.4-1.4s-1.4.6-1.4,1.4.6,1.4,1.4,1.4,1.4-.6,1.4-1.4Z"/>
      <path class="st1" d="M131.3,84c0-.8-.6-1.4-1.4-1.4s-1.4.6-1.4,1.4.6,1.4,1.4,1.4,1.4-.6,1.4-1.4Z"/>
      <path class="st1" d="M126.4,85.5c-.8,0-1.4.6-1.4,1.4s.6,1.4,1.4,1.4,1.4-.6,1.4-1.4-.6-1.4-1.4-1.4Z"/>
      <path class="st1" d="M137.2,77.5c.8,0,1.4-.6,1.4-1.4s-.6-1.4-1.4-1.4-1.4.6-1.4,1.4.6,1.4,1.4,1.4Z"/>
      <path class="st1" d="M136.7,79.9c0,.8.6,1.4,1.4,1.4s1.4-.6,1.4-1.4-.6-1.4-1.4-1.4-1.4.6-1.4,1.4Z"/>
      <path class="st1" d="M139.4,82.6c-.8,0-1.4.6-1.4,1.4s.6,1.4,1.4,1.4,1.4-.6,1.4-1.4-.6-1.4-1.4-1.4Z"/>
      <path class="st1" d="M131.5,87.1c-.8,0-1.4.6-1.4,1.4s.6,1.4,1.4,1.4,1.4-.6,1.4-1.4-.6-1.4-1.4-1.4Z"/>
      <path class="st1" d="M137.2,86.7c-.8,0-1.4.6-1.4,1.4s.6,1.4,1.4,1.4,1.4-.6,1.4-1.4-.6-1.4-1.4-1.4Z"/>
      <path class="st1" d="M85.5,82.6c-.8,0-1.4.6-1.4,1.4s.6,1.4,1.4,1.4,1.4-.6,1.4-1.4-.6-1.4-1.4-1.4Z"/>
      <path class="st1" d="M88.3,79.4c.8,0,1.4-.6,1.4-1.4s-.6-1.4-1.4-1.4-1.4.6-1.4,1.4.6,1.4,1.4,1.4Z"/>
      <path class="st1" d="M95.3,80.1c-.8,0-1.4.6-1.4,1.4s.6,1.4,1.4,1.4,1.4-.6,1.4-1.4-.6-1.4-1.4-1.4Z"/>
      <path class="st1" d="M90.2,82.6c-.8,0-1.4.6-1.4,1.4s.6,1.4,1.4,1.4,1.4-.6,1.4-1.4-.6-1.4-1.4-1.4Z"/>
      <path class="st1" d="M93.7,85.5c-.8,0-1.4.6-1.4,1.4s.6,1.4,1.4,1.4,1.4-.6,1.4-1.4-.6-1.4-1.4-1.4Z"/>
      <path class="st1" d="M82.9,77.5c.8,0,1.4-.6,1.4-1.4s-.6-1.4-1.4-1.4-1.4.6-1.4,1.4.6,1.4,1.4,1.4Z"/>
      <path class="st1" d="M82,81.3c.8,0,1.4-.6,1.4-1.4s-.6-1.4-1.4-1.4-1.4.6-1.4,1.4.6,1.4,1.4,1.4Z"/>
      <path class="st1" d="M82.1,84c0-.8-.6-1.4-1.4-1.4s-1.4.6-1.4,1.4.6,1.4,1.4,1.4,1.4-.6,1.4-1.4Z"/>
      <path class="st1" d="M88.6,87.1c-.8,0-1.4.6-1.4,1.4s.6,1.4,1.4,1.4,1.4-.6,1.4-1.4-.6-1.4-1.4-1.4Z"/>
      <path class="st1" d="M82.9,86.7c-.8,0-1.4.6-1.4,1.4s.6,1.4,1.4,1.4,1.4-.6,1.4-1.4-.6-1.4-1.4-1.4Z"/>
      <path class="st1" d="M185,97.3c-.7-.6-1.3-1.2-2-1.8-6.3-5.6-14.9-13.3-36.4-17.2-.2-.4-.4-.8-.6-1.1,11.8.3,27.8,5.5,33.9,10.1.3.2.7.4,1.1.4.5,0,1.1-.2,1.4-.7.6-.8.4-1.9-.3-2.5-7.1-5.4-25.8-11.3-38.8-10.8-4.5-4.8-11.9-8.9-16.7-9.4-.2,0-.4,0-.7,0-1.2-2.5-6.7-5.8-15.4-5.7-8.4,0-13.8,3-15.3,5.5-.9,0-1.8.2-2.4.3-1.8.4-11.1,3.6-16.4,9.7-13-.3-31.3,5.6-38.3,10.9-.8.6-.9,1.7-.3,2.5.4.5.9.7,1.4.7s.8-.1,1.1-.4c6-4.6,21.8-9.7,33.6-10.1-.2.4-.4.8-.5,1.2-21.4,3.9-29.9,11.5-36.2,17.1-.7.6-1.4,1.2-2,1.8-.7.6-.8,1.8-.2,2.5.4.4.9.6,1.4.6s.8-.1,1.2-.4c.7-.6,1.4-1.2,2.1-1.9,5.8-5.2,13.7-12.2,33-16,0,.3,0,.6,0,1-11.6,1.9-24.1,10.7-31.5,18-.7.7-.7,1.8,0,2.5.3.4.8.5,1.3.5s.9-.2,1.2-.5c5.7-5.6,18.1-15.1,29.6-17,.2.6.4,1.2.7,1.8-6.5,2.2-12.6,5-19.4,11.5-.7.7-.7,1.8,0,2.5.4.4.8.6,1.3.6s.9-.2,1.2-.5c6.1-5.9,11.4-8.4,19.2-11,.8.8,1.7,1.6,2.8,2.3,3.3,2.1,7.7,3.5,12,3.8.2,0,.5,0,.8,0,5.7,0,15.6-3,18.4-9.3,1.9,4.4,8.3,9.3,18,9.3s12.5-2.3,16-6.4c7.9,2.6,13.1,5.2,19.3,11.1.3.3.8.5,1.2.5s.9-.2,1.3-.6c.7-.7.7-1.8,0-2.5-6.9-6.6-13.1-9.3-19.7-11.6.3-.6.5-1.1.7-1.7,11.6,1.7,24.2,11.4,30,17,.3.3.8.5,1.2.5s.9-.2,1.3-.5c.7-.7.7-1.8,0-2.5-7.5-7.3-20.1-16.2-31.8-18,0-.3,0-.6,0-1,19.4,3.8,27.3,10.8,33.2,16,.7.7,1.4,1.3,2.1,1.9.3.3.8.4,1.2.4s1-.2,1.4-.6c.6-.7.6-1.9-.2-2.5ZM142.1,87.9c-1.6,2.4-5.5,6.3-14.2,6.3s-14.7-5.2-15-8.2c-.2-2-1.3-4.1-3-4.1s-2.5,2.3-2.9,4.1c-1,5.1-10.4,8.5-16,8.2-3.6-.2-7.5-1.4-10.2-3.2-3.3-2.2-4.9-5-4.7-8.3,0-.4,0-.8.2-1.2.1-.6.3-1.1.5-1.7.4-.9.9-1.8,1.6-2.7.2-.2.3-.4.5-.7,4.5-5.2,13.2-8.4,14.6-8.8.6-.1,1.3-.2,2.2-.3,2,2.8,7,6.5,14.8,6.4,7.7,0,12.5-3.4,14.6-6.2.4,0,.8,0,1.1.1,5.2.6,14.9,6.9,17.2,12.1,0,0,0,0,0,0,.1.3.2.7.3,1,.5,2.1,0,4.7-1.5,6.9Z"/>
      <path class="st1" d="M63.2,37.4l-.3-.2c-1.5-1.2-6.1-4.7-11.6-1.1-6.5,4.2-7.2,18.6-1.6,30.2.3.6.9,1,1.6,1s.5,0,.8-.2c.9-.4,1.3-1.5.8-2.4-2.1-4.3-3.1-9-3.3-13.2,0-.1,0-.3,0-.4-.1-2.3.5-4.2,1.8-5.5,1.3-1.4,3-1.8,3.4-1.8,1.3,0,2.1.1,3.3,1.8.6.8,1.7,1,2.5.4.8-.6,1-1.7.4-2.5-2.1-2.9-4.2-3.3-6.2-3.3s-2.2.3-3.4,1c.5-.9,1.1-1.7,1.9-2.1,3-1.9,5.4-.7,7.5,1l.3.2c.8.6,1.9.4,2.5-.4.6-.8.4-1.9-.4-2.5Z"/>
      <path class="st1" d="M167.1,36.1c-5.5-3.6-10.1,0-11.6,1.1l-.3.2c-.8.6-.9,1.7-.4,2.5.6.8,1.7.9,2.5.4l.3-.2c2.1-1.6,4.5-2.9,7.5-1,.7.5,1.3,1.2,1.9,2.1-1.3-.7-2.5-1-3.4-1-2,0-4.1.4-6.2,3.3-.6.8-.4,1.9.4,2.5.8.6,1.9.4,2.5-.4,1.2-1.7,2-1.8,3.3-1.8s2.1.4,3.4,1.8c1.3,1.3,1.9,3.2,1.8,5.5,0,.1,0,.3,0,.4-.2,4.2-1.2,8.8-3.3,13.2-.4.9,0,2,.8,2.4.3.1.5.2.8.2.7,0,1.3-.4,1.6-1,5.6-11.6,4.9-26-1.6-30.2Z"/>
    </g>
  </g>
</svg>