<?xml version="1.0" encoding="UTF-8"?>
<svg id="Calque_1" xmlns="http://www.w3.org/2000/svg" version="1.1" viewBox="0 0 262 108">
  <!-- Generator: Adobe Illustrator 29.1.0, SVG Export Plug-In . SVG Version: 2.1.0 Build 142)  -->
  <defs>
    <style>
      .st0 {
        fill: #f60;
      }

      .st1 {
        fill: #fff;
      }

      .st2 {
        fill: none;
      }
    </style>
  </defs>
  <rect class="st2" x=".4" y="-.1" width="262" height="108"/>
  <g>
    <path class="st1" d="M75,41.9c-.9,0-1.6-.6-1.8-1.5-.4-3-1.5-6.7-4.3-7.4-2.6-.7-5.9,1.5-6.8,2.8-.6.8-1.7,1-2.5.4-.8-.6-1-1.7-.4-2.5,1.7-2.4,6.3-5.2,10.5-4.2,2.6.6,5.9,3,6.9,10.4.1,1-.5,1.9-1.5,2,0,0-.2,0-.2,0Z"/>
    <path class="st1" d="M115.7,41.9c0,0-.2,0-.2,0-1-.1-1.7-1-1.5-2,1-7.4,4.3-9.7,6.9-10.4,4.2-1,8.8,1.8,10.5,4.2.6.8.4,1.9-.4,2.5-.8.6-1.9.4-2.5-.4-.9-1.3-4.1-3.4-6.8-2.8-2.8.7-3.8,4.4-4.3,7.4-.1.9-.9,1.5-1.8,1.5Z"/>
    <path class="st1" d="M120.4,66.9c-.8,0-1.4.6-1.4,1.4s.6,1.4,1.4,1.4,1.4-.6,1.4-1.4-.6-1.4-1.4-1.4Z"/>
    <path class="st1" d="M117.5,60.9c-.8,0-1.4.6-1.4,1.4s.6,1.4,1.4,1.4,1.4-.6,1.4-1.4-.6-1.4-1.4-1.4Z"/>
    <path class="st1" d="M112,65.8c0-.8-.6-1.4-1.4-1.4s-1.4.6-1.4,1.4.6,1.4,1.4,1.4,1.4-.6,1.4-1.4Z"/>
    <path class="st1" d="M117.1,68.4c0-.8-.6-1.4-1.4-1.4s-1.4.6-1.4,1.4.6,1.4,1.4,1.4,1.4-.6,1.4-1.4Z"/>
    <path class="st1" d="M112.1,69.8c-.8,0-1.4.6-1.4,1.4s.6,1.4,1.4,1.4,1.4-.6,1.4-1.4-.6-1.4-1.4-1.4Z"/>
    <path class="st1" d="M122.9,61.8c.8,0,1.4-.6,1.4-1.4s-.6-1.4-1.4-1.4-1.4.6-1.4,1.4.6,1.4,1.4,1.4Z"/>
    <path class="st1" d="M122.5,64.2c0,.8.6,1.4,1.4,1.4s1.4-.6,1.4-1.4-.6-1.4-1.4-1.4-1.4.6-1.4,1.4Z"/>
    <path class="st1" d="M125.1,66.9c-.8,0-1.4.6-1.4,1.4s.6,1.4,1.4,1.4,1.4-.6,1.4-1.4-.6-1.4-1.4-1.4Z"/>
    <path class="st1" d="M117.2,71.4c-.8,0-1.4.6-1.4,1.4s.6,1.4,1.4,1.4,1.4-.6,1.4-1.4-.6-1.4-1.4-1.4Z"/>
    <path class="st1" d="M122.9,71c-.8,0-1.4.6-1.4,1.4s.6,1.4,1.4,1.4,1.4-.6,1.4-1.4-.6-1.4-1.4-1.4Z"/>
    <path class="st1" d="M71.2,66.9c-.8,0-1.4.6-1.4,1.4s.6,1.4,1.4,1.4,1.4-.6,1.4-1.4-.6-1.4-1.4-1.4Z"/>
    <path class="st1" d="M74.1,63.8c.8,0,1.4-.6,1.4-1.4s-.6-1.4-1.4-1.4-1.4.6-1.4,1.4.6,1.4,1.4,1.4Z"/>
    <path class="st1" d="M81.1,64.4c-.8,0-1.4.6-1.4,1.4s.6,1.4,1.4,1.4,1.4-.6,1.4-1.4-.6-1.4-1.4-1.4Z"/>
    <path class="st1" d="M76,66.9c-.8,0-1.4.6-1.4,1.4s.6,1.4,1.4,1.4,1.4-.6,1.4-1.4-.6-1.4-1.4-1.4Z"/>
    <path class="st1" d="M79.5,69.8c-.8,0-1.4.6-1.4,1.4s.6,1.4,1.4,1.4,1.4-.6,1.4-1.4-.6-1.4-1.4-1.4Z"/>
    <path class="st1" d="M68.7,61.8c.8,0,1.4-.6,1.4-1.4s-.6-1.4-1.4-1.4-1.4.6-1.4,1.4.6,1.4,1.4,1.4Z"/>
    <path class="st1" d="M67.7,65.7c.8,0,1.4-.6,1.4-1.4s-.6-1.4-1.4-1.4-1.4.6-1.4,1.4.6,1.4,1.4,1.4Z"/>
    <path class="st1" d="M67.9,68.4c0-.8-.6-1.4-1.4-1.4s-1.4.6-1.4,1.4.6,1.4,1.4,1.4,1.4-.6,1.4-1.4Z"/>
    <path class="st1" d="M74.4,71.4c-.8,0-1.4.6-1.4,1.4s.6,1.4,1.4,1.4,1.4-.6,1.4-1.4-.6-1.4-1.4-1.4Z"/>
    <path class="st1" d="M68.7,71c-.8,0-1.4.6-1.4,1.4s.6,1.4,1.4,1.4,1.4-.6,1.4-1.4-.6-1.4-1.4-1.4Z"/>
    <path class="st1" d="M170.7,81.7c-.7-.6-1.3-1.2-2-1.8-6.3-5.6-14.9-13.3-36.4-17.2-.2-.4-.4-.8-.6-1.1,11.8.3,27.8,5.5,33.9,10.1.3.2.7.4,1.1.4.5,0,1.1-.2,1.4-.7.6-.8.4-1.9-.3-2.5-7.1-5.4-25.8-11.3-38.8-10.8-4.5-4.8-11.9-8.9-16.7-9.4-.2,0-.4,0-.7,0-1.2-2.5-6.7-5.8-15.4-5.7-8.4,0-13.8,3-15.3,5.5-.9,0-1.8.2-2.4.3-1.8.4-11.1,3.6-16.4,9.7-13-.3-31.3,5.6-38.3,10.9-.8.6-.9,1.7-.3,2.5.4.5.9.7,1.4.7s.8-.1,1.1-.4c6-4.6,21.8-9.7,33.6-10.1-.2.4-.4.8-.5,1.2-21.4,3.9-29.9,11.5-36.2,17.1-.7.6-1.4,1.2-2,1.8-.7.6-.8,1.8-.2,2.5.4.4.9.6,1.4.6s.8-.1,1.2-.4c.7-.6,1.4-1.2,2.1-1.9,5.8-5.2,13.7-12.2,33-16,0,.3,0,.6,0,1-11.6,1.9-24.1,10.7-31.5,18-.7.7-.7,1.8,0,2.5.3.4.8.5,1.3.5s.9-.2,1.2-.5c5.7-5.6,18.1-15.1,29.6-17,.2.6.4,1.2.7,1.8-6.5,2.2-12.6,5-19.4,11.5-.7.7-.7,1.8,0,2.5.4.4.8.6,1.3.6s.9-.2,1.2-.5c6.1-5.9,11.4-8.4,19.2-11,.8.8,1.7,1.6,2.8,2.3,3.3,2.1,7.7,3.5,12,3.8.2,0,.5,0,.8,0,5.7,0,15.6-3,18.4-9.3,1.9,4.4,8.3,9.3,18,9.3s12.5-2.3,16-6.4c7.9,2.6,13.1,5.2,19.3,11.1.3.3.8.5,1.2.5s.9-.2,1.3-.6c.7-.7.7-1.8,0-2.5-6.9-6.6-13.1-9.3-19.7-11.6.3-.6.5-1.1.7-1.7,11.6,1.7,24.2,11.4,30,17,.3.3.8.5,1.2.5s.9-.2,1.3-.5c.7-.7.7-1.8,0-2.5-7.5-7.3-20.1-16.2-31.8-18,0-.3,0-.6,0-1,19.4,3.8,27.3,10.8,33.2,16,.7.7,1.4,1.3,2.1,1.9.3.3.8.4,1.2.4s1-.2,1.4-.6c.6-.7.6-1.9-.2-2.5ZM127.9,72.2c-1.6,2.4-5.5,6.3-14.2,6.3s-14.7-5.2-15-8.2c-.2-2-1.3-4.1-3-4.1s-2.5,2.3-2.9,4.1c-1,5.1-10.4,8.5-16,8.2-3.6-.2-7.5-1.4-10.2-3.2-3.3-2.2-4.9-5-4.7-8.3,0-.4,0-.8.2-1.2.1-.6.3-1.1.5-1.7.4-.9.9-1.8,1.6-2.7.2-.2.3-.4.5-.7,4.5-5.2,13.2-8.4,14.6-8.8.6-.1,1.3-.2,2.2-.3,2,2.8,7,6.5,14.8,6.4,7.7,0,12.5-3.4,14.6-6.2.4,0,.8,0,1.1.1,5.2.6,14.9,6.9,17.2,12.1,0,0,0,0,0,0,.1.3.2.7.3,1,.5,2.1,0,4.7-1.5,6.9Z"/>
    <path class="st1" d="M49,21.7l-.3-.2c-1.5-1.2-6.1-4.7-11.6-1.1-6.5,4.2-7.2,18.6-1.6,30.2.3.6.9,1,1.6,1s.5,0,.8-.2c.9-.4,1.3-1.5.8-2.4-2.1-4.3-3.1-9-3.3-13.2,0-.1,0-.3,0-.4-.1-2.3.5-4.2,1.8-5.5,1.3-1.4,3-1.8,3.4-1.8,1.3,0,2.1.1,3.3,1.8.6.8,1.7,1,2.5.4.8-.6,1-1.7.4-2.5-2.1-2.9-4.2-3.3-6.2-3.3s-2.2.3-3.4,1c.5-.9,1.1-1.7,1.9-2.1,3-1.9,5.4-.7,7.5,1l.3.2c.8.6,1.9.4,2.5-.4.6-.8.4-1.9-.4-2.5Z"/>
    <path class="st1" d="M152.8,20.4c-5.5-3.6-10.1,0-11.6,1.1l-.3.2c-.8.6-.9,1.7-.4,2.5.6.8,1.7.9,2.5.4l.3-.2c2.1-1.6,4.5-2.9,7.5-1,.7.5,1.3,1.2,1.9,2.1-1.3-.7-2.5-1-3.4-1-2,0-4.1.4-6.2,3.3-.6.8-.4,1.9.4,2.5.8.6,1.9.4,2.5-.4,1.2-1.7,2-1.8,3.3-1.8s2.1.4,3.4,1.8c1.3,1.3,1.9,3.2,1.8,5.5,0,.1,0,.3,0,.4-.2,4.2-1.2,8.8-3.3,13.2-.4.9,0,2,.8,2.4.3.1.5.2.8.2.7,0,1.3-.4,1.6-1,5.6-11.6,4.9-26-1.6-30.2Z"/>
  </g>
  <g>
    <path class="st0" d="M179.1,28l-2.2,6.7c-.1.5-.4.9-.6,1.3-.4.4-1,.7-1.6.7s-1.1-.2-1.6-.7c-.3-.4-.5-.8-.7-1.3l-4.2-12.5c-.1-.3-.2-.7-.3-1.1,0-.6.2-1.1.6-1.6.4-.4,1-.7,1.6-.7s1.1.2,1.6.6c.3.4.5.8.6,1.3h0l2.2,6.7,2.2-6.7h0s0,0,0,0c0-.5.3-.9.6-1.3.4-.4,1-.6,1.6-.6s1.2.2,1.6.7c.3.3.5.8.6,1.2,0,0,0,0,0,0h0l2.2,6.7,2.2-6.7h0c.1-.5.3-.9.6-1.3.4-.4,1-.6,1.6-.6s1.1.2,1.6.7c.4.4.7,1,.7,1.6,0,.4-.2.8-.3,1.1l-4.2,12.5c-.1.5-.4.9-.6,1.3-.4.4-1,.7-1.6.7s-1.1-.2-1.6-.7c-.3-.4-.5-.8-.7-1.3l-2.2-6.7Z"/>
    <path class="st1" d="M196.9,21.4c.7-.2,1.4-.4,2.2-.4,1.8,0,3.4.7,4.7,2,1.3,1.3,2,2.9,2,4.7v6.7c0,.6-.2,1.1-.7,1.6-.4.4-1,.6-1.6.6s-1.1-.2-1.6-.6c-.4-.4-.6-1-.6-1.6v-6.7c0-.6-.2-1.1-.7-1.6-.4-.4-1-.7-1.6-.7s-1.1.2-1.6.7c-.4.4-.6,1-.6,1.6v6.7c0,.6-.2,1.1-.7,1.6-.4.4-1,.6-1.6.6s-1.1-.2-1.6-.6c-.4-.4-.6-1-.6-1.6v-13.4c0-.6.2-1.1.6-1.6.4-.4,1-.7,1.6-.7s1.1.2,1.6.7c.4.4.7,1,.7,1.6v.4ZM215.8,32.2c.9,0,1.7-.3,2.4-1,.7-.7,1-1.4,1-2.4s-.3-1.7-1-2.4c-.7-.7-1.4-1-2.4-1s-1.7.3-2.4,1c-.7.7-1,1.4-1,2.4s.3,1.7,1,2.4c.7.7,1.4,1,2.4,1ZM219.6,35.7c-1.1.6-2.4.9-3.8.9-2.2,0-4-.8-5.5-2.3-1.5-1.5-2.3-3.4-2.3-5.5s.8-4,2.3-5.5c1.5-1.5,3.4-2.3,5.5-2.3s2.6.3,3.8.9c0,0,.1-.2.2-.3.4-.4,1-.6,1.6-.6s1.1.2,1.6.7c.4.4.7,1,.7,1.6v11.1c0,.6-.2,1.1-.7,1.6-.4.4-1,.6-1.6.6s-1.1-.2-1.6-.7c0,0-.2-.2-.2-.3ZM225.8,21.1c0-.6.2-1.1.6-1.6.4-.4,1-.7,1.6-.7s1.1.2,1.6.7c.4.4.7,1,.7,1.6h1.1c.6,0,1.1.2,1.6.7.4.4.7,1,.7,1.6s-.2,1.1-.7,1.6c-.4.4-1,.6-1.6.6h-1.1v4.5c0,.6.2,1.1.6,1.6.4.4,1,.6,1.6.6s1.1-.2,1.6-.6l.7-.9c.4-.4,1-.7,1.6-.7s1.1.2,1.6.7c.4.4.7,1,.7,1.6s-.2,1-.5,1.4c-.2.4-.5.7-.9,1.1-1.3,1.3-2.9,1.9-4.7,1.9s-3.4-.6-4.7-1.9c-1.3-1.3-1.9-2.9-1.9-4.7v-8.9Z"/>
  </g>
  <g>
    <path class="st0" d="M172.7,49.2h-2.2c-.6,0-1.1-.2-1.6-.6-.4-.4-.6-1-.6-1.6s.2-1.1.6-1.6c.4-.4,1-.7,1.6-.7h8.9c.6,0,1.1.2,1.6.7.4.4.7,1,.7,1.6s-.2,1.1-.7,1.6c-.4.4-1,.6-1.6.6h-2.2v11.1c0,.6-.2,1.1-.7,1.6-.4.4-1,.6-1.6.6s-1.1-.2-1.6-.6c-.4-.4-.6-1-.6-1.6v-11.1Z"/>
    <path class="st1" d="M188.3,47.4c.7-.2,1.4-.4,2.2-.4,1.8,0,3.4.7,4.7,2,1.3,1.3,2,2.9,2,4.7v6.7c0,.6-.2,1.1-.7,1.6-.4.4-1,.6-1.6.6s-1.1-.2-1.6-.6c-.4-.4-.6-1-.6-1.6v-6.7c0-.6-.2-1.1-.7-1.6-.4-.4-1-.7-1.6-.7s-1.1.2-1.6.7c-.4.4-.6,1-.6,1.6v6.7c0,.6-.2,1.1-.7,1.6-.4.4-1,.6-1.6.6s-1.1-.2-1.6-.6c-.4-.4-.6-1-.6-1.6v-13.4c0-.6.2-1.1.6-1.6.4-.4,1-.7,1.6-.7s1.1.2,1.6.7c.4.4.7,1,.7,1.6v.4ZM204.7,57s0,0,.1.1c.7.7,1.4,1,2.4,1h3.3c.6,0,1.1.2,1.6.7.4.4.7,1,.7,1.6s-.2,1.1-.7,1.6c-.4.4-1,.6-1.6.6h-3.3c-2.2,0-4-.8-5.5-2.3-1.5-1.5-2.3-3.4-2.3-5.5s.8-4,2.3-5.5c1.5-1.5,3.4-2.3,5.5-2.3s4,.8,5.5,2.3c1.5,1.5,2.3,3.4,2.3,5.5s-.2,1.1-.7,1.6c-.4.4-1,.6-1.6.6h-8ZM209.7,52.6s0,0-.1-.1c-.7-.7-1.4-1-2.4-1s-1.7.3-2.4,1c0,0,0,0-.1.1h5Z"/>
  </g>
  <g>
    <path class="st0" d="M187.7,77.4c.6,0,1.1.2,1.6.7.4.4.7,1,.7,1.6s-.2,1.1-.7,1.6c-.4.4-1,.6-1.6.6h-4.5v4.5c0,.6-.2,1.1-.7,1.6-.4.4-1,.6-1.6.6s-1.1-.2-1.6-.6c-.4-.4-.6-1-.6-1.6v-13.4c0-.6.2-1.1.6-1.6.4-.4,1-.7,1.6-.7h8.9c.6,0,1.1.2,1.6.7.4.4.7,1,.7,1.6s-.2,1.1-.7,1.6c-.4.4-1,.6-1.6.6h-6.7v2.2h4.5Z"/>
    <path class="st1" d="M202.2,84.1c.9,0,1.7-.3,2.4-1s1-1.4,1-2.4-.3-1.7-1-2.4-1.4-1-2.4-1-1.7.3-2.4,1c-.7.7-1,1.4-1,2.4s.3,1.7,1,2.4c.7.7,1.4,1,2.4,1ZM205.9,87.6c-1.1.6-2.4.9-3.8.9-2.2,0-4-.8-5.5-2.3-1.5-1.5-2.3-3.4-2.3-5.5s.8-4,2.3-5.5c1.5-1.5,3.4-2.3,5.5-2.3s2.6.3,3.8.9c0,0,.1-.2.2-.3.4-.4,1-.6,1.6-.6s1.1.2,1.6.7c.4.4.7,1,.7,1.6v11.1c0,.6-.2,1.1-.7,1.6-.4.4-1,.6-1.6.6s-1.1-.2-1.6-.7c0,0-.2-.2-.2-.3ZM216.7,80l5.1-6.4c.4-.4,1-.6,1.6-.6s1.1.2,1.6.7c.4.4.7,1,.7,1.6s-.2,1.1-.6,1.6l-3.3,4,3.3,4c.4.4.6,1,.6,1.6s-.2,1.1-.7,1.6c-.4.4-1,.6-1.6.6s-1.1-.2-1.6-.7l-2.9-3.6-2.5,3.2c0,.1-.2.3-.3.4-.4.4-1,.7-1.6.7s-1.1-.2-1.6-.6c-.4-.4-.6-1-.6-1.6v-13.4c0-.6.2-1.1.6-1.6.4-.4,1-.7,1.6-.7s1.1.2,1.6.7c.4.4.7,1,.7,1.6v7ZM233.1,83s0,0,.1.1c.7.7,1.4,1,2.4,1h3.3c.6,0,1.1.2,1.6.7.4.4.7,1,.7,1.6s-.2,1.1-.7,1.6c-.4.4-1,.6-1.6.6h-3.3c-2.2,0-4-.8-5.5-2.3-1.5-1.5-2.3-3.4-2.3-5.5s.8-4,2.3-5.5,3.4-2.3,5.5-2.3,4,.8,5.5,2.3c1.5,1.5,2.3,3.4,2.3,5.5s-.2,1.1-.7,1.6c-.4.4-1,.6-1.6.6h-8ZM238.1,78.5s0,0-.1-.1c-.7-.7-1.4-1-2.4-1s-1.7.3-2.4,1c0,0,0,0-.1.1h5Z"/>
  </g>
</svg>